# xmcd
#
# Track frame offsets:
#	150
#	25374
#	48687
#	71451
#	96154
#	116355
#	137778
#	160676
#
# Disc length: 2399
#
# Revision: 2
# Processed by: cddbd v1.5.1PL0 Copyright (c) Steve Scherf et al.
# Submitted via: CDex 1.50Beta5
# Normalized: r1:TRMNUM
#
DISCID=68095d08
DTITLE=TED ITO - Stay With Me
DYEAR=1900
DGENRE=
TTITLE0=Stay With Me
TTITLE1=Malayo Man Ako (翼を広げて)
TTITLE2=Ikaw Lamang (24時間の神話)
TTITLE3=Hello My Dear
TTITLE4=Bakit Ako'y Iniwan Mo? (幸せになろう)
TTITLE5=Alaala Mo (最後の雨)
TTITLE6=Paano ko Sasabihin? (愛をくれよ)
TTITLE7=Miss Kita (逢いたくてしかたない)
EXTD=
EXTT0=
EXTT1=
EXTT2=
EXTT3=
EXTT4=
EXTT5=
EXTT6=
EXTT7=
PLAYORDER=
